<?xml version="1.0" encoding="UTF-8" standalone="no"?>
<svg
   xmlns:dc="http://purl.org/dc/elements/1.1/"
   xmlns:cc="http://creativecommons.org/ns#"
   xmlns:rdf="http://www.w3.org/1999/02/22-rdf-syntax-ns#"
   xmlns:svg="http://www.w3.org/2000/svg"
   xmlns="http://www.w3.org/2000/svg"
   viewBox="0 0 967.45123 733.08875"
   height="733.08875"
   width="967.45123"
   xml:space="preserve"
   version="1.1"
   id="svg2"><metadata
     id="metadata8"><rdf:RDF><cc:Work
         rdf:about=""><dc:format>image/svg+xml</dc:format><dc:type
           rdf:resource="http://purl.org/dc/dcmitype/StillImage" /><dc:title></dc:title></cc:Work></rdf:RDF></metadata><defs
     id="defs6" /><g
     transform="matrix(1.25,0,0,-1.25,0,733.08875)"
     id="g10"><g
       transform="translate(150.8907,188.9361)"
       id="g12"><path
         id="path14"
         style="fill:#bcbcbc;fill-opacity:1;fill-rule:nonzero;stroke:none"
         d="M 0,0 76,-28.08 76,-46.4 0,-15.409 0,0 Z" /></g><g
       transform="translate(150.8907,235.1633)"
       id="g16"><path
         id="path18"
         style="fill:#9e2a21;fill-opacity:1;fill-rule:nonzero;stroke:none"
         d="M 0,0 76,-19.347 76,-37.667 0,-15.409 0,0 Z" /></g><g
       transform="translate(150.8907,281.3904)"
       id="g20"><path
         id="path22"
         style="fill:#9e2a21;fill-opacity:1;fill-rule:nonzero;stroke:none"
         d="M 0,0 76,-10.614 76,-28.934 0,-15.409 0,0 Z" /></g><g
       transform="translate(150.8907,327.6176)"
       id="g24"><path
         id="path26"
         style="fill:#9e2a21;fill-opacity:1;fill-rule:nonzero;stroke:none"
         d="M 0,0 76,-1.881 76,-20.201 0,-15.409 0,0 Z" /></g><g
       transform="translate(150.8907,389.2538)"
       id="g28"><path
         id="path30"
         style="fill:#bcbcbc;fill-opacity:1;fill-rule:nonzero;stroke:none"
         d="M 0,0 76,9.763 76,-26.877 0,-30.818 0,0 Z" /></g><g
       transform="translate(320.8907,357.5298)"
       id="g32"><path
         id="path34"
         style="fill:#dddddd;fill-opacity:1;fill-rule:nonzero;stroke:none"
         d="m 0,0 -94,4.847 0,36.64 L 0,29.48 0,0 Z" /></g><g
       transform="translate(320.8907,313.3102)"
       id="g36"><path
         id="path38"
         style="fill:#c44133;fill-opacity:1;fill-rule:nonzero;stroke:none"
         d="m 0,0 -94,-5.894 0,18.32 L 0,14.74 0,0 Z" /></g><g
       transform="translate(320.8907,269.0906)"
       id="g40"><path
         id="path42"
         style="fill:#c44133;fill-opacity:1;fill-rule:nonzero;stroke:none"
         d="M 0,0 -94,-16.634 -94,1.686 0,14.74 0,0 Z" /></g><g
       transform="translate(320.8907,224.871)"
       id="g44"><path
         id="path46"
         style="fill:#c44133;fill-opacity:1;fill-rule:nonzero;stroke:none"
         d="m 0,0 -94,-27.375 0,18.32 L 0,14.74 0,0 Z" /></g><g
       transform="translate(320.8907,180.6514)"
       id="g48"><path
         id="path50"
         style="fill:#dddddd;fill-opacity:1;fill-rule:nonzero;stroke:none"
         d="m 0,0 -94,-38.116 0,18.32 L 0,14.74 0,0 Z" /></g><g
       transform="translate(332.8907,177.2422)"
       id="g52"><path
         id="path54"
         style="fill:#9e2a21;fill-opacity:1;fill-rule:nonzero;stroke:none"
         d="m 0,0 -12,3.276 0,206.491 12,1.032 L 0,0 Z" /></g><g
       transform="translate(403.8907,214.7422)"
       id="g56"><path
         id="path58"
         style="fill:#9e2a21;fill-opacity:1;fill-rule:nonzero;stroke:none"
         d="M 0,0 -4.333,-1.833 -4.463,151.253 0.092,149.817 0,0 Z" /></g><g
       transform="translate(381.9141,201.0914)"
       id="g60"><path
         id="path62"
         style="fill:#9e2a21;fill-opacity:1;fill-rule:nonzero;stroke:none"
         d="M 0,0 -4.333,-2.022 -4.487,166.904 0.069,165.318 0,0 Z" /></g><g
       transform="translate(356.9236,192.7368)"
       id="g64"><path
         id="path66"
         style="fill:#9e2a21;fill-opacity:1;fill-rule:nonzero;stroke:none"
         d="m 0,0 -4.333,-2.166 -0.172,181 4.556,-1.699 L 0,0 Z" /></g><g
       transform="translate(419.8907,363.324)"
       id="g68"><path
         id="path70"
         style="fill:#c44133;fill-opacity:1;fill-rule:nonzero;stroke:none"
         d="M 0,0 -87,7.85 -87,24.717 0,12.926 0,0 Z" /></g><g
       transform="translate(419.8907,221.113)"
       id="g72"><path
         id="path74"
         style="fill:#c44133;fill-opacity:1;fill-rule:nonzero;stroke:none"
         d="m 0,0 -87,-35.506 0,-8.365 L 0,-6.41 0,0 Z" /></g><g
       transform="translate(416.8907,219.5523)"
       id="g76"><path
         id="path78"
         style="fill:#c44133;fill-opacity:1;fill-rule:nonzero;stroke:none"
         d="M 0,0 3,1.406 3,143.772 0,144.082 0,0 Z" /></g><g
       transform="translate(450.8907,368.7138)"
       id="g80"><path
         id="path82"
         style="fill:#9e2a21;fill-opacity:1;fill-rule:nonzero;stroke:none"
         d="m 0,0 -31,-1.354 0,8.89 L 0,9.295 0,0 Z" /></g><g
       transform="translate(419.8907,331.2139)"
       id="g84"><path
         id="path86"
         style="fill:#9e2a21;fill-opacity:1;fill-rule:nonzero;stroke:none"
         d="M 0,0 31,-0.279 31,9.644 0,9.492 0,0 Z" /></g><g
       transform="translate(450.8907,294.4371)"
       id="g88"><path
         id="path90"
         style="fill:#9e2a21;fill-opacity:1;fill-rule:nonzero;stroke:none"
         d="m 0,0 -31,1.936 0,8.868 L 0,9.285 0,0 Z" /></g><g
       transform="translate(452.8907,257.0327)"
       id="g92"><path
         id="path94"
         style="fill:#bcbcbc;fill-opacity:1;fill-rule:nonzero;stroke:none"
         d="m 0,0 -33,3.858 0,8.87 L 0,9.315 0,0 Z" /></g><g
       transform="translate(323.8907,393.5933)"
       id="g96"><path
         id="path98"
         style="fill:#9e2a21;fill-opacity:1;fill-rule:nonzero;stroke:none"
         d="m 0,0 127,12.259 0,9.285 L 0,7.618 0,0 Z" /></g><g
       transform="translate(323.8907,431.6811)"
       id="g100"><path
         id="path102"
         style="fill:#bcbcbc;fill-opacity:1;fill-rule:nonzero;stroke:none"
         d="M 0,0 127,20.594 127,11.309 0,-7.618 0,0 Z" /></g><g
       transform="translate(450.8907,452.2752)"
       id="g104"><path
         id="path106"
         style="fill:#dddddd;fill-opacity:1;fill-rule:nonzero;stroke:none"
         d="M 0,0 0,-9.479 95,-42.564 0,0 Z" /></g><g
       transform="translate(450.8907,415.1368)"
       id="g108"><path
         id="path110"
         style="fill:#c44133;fill-opacity:1;fill-rule:nonzero;stroke:none"
         d="M 0,0 0,-9.29 94.917,-29.003 0,0 Z" /></g><g
       transform="translate(450.8907,378.0089)"
       id="g112"><path
         id="path114"
         style="fill:#c44133;fill-opacity:1;fill-rule:nonzero;stroke:none"
         d="M 0,0 0,-9.38 95,-15.68 0,0 Z" /></g><g
       transform="translate(450.8907,340.8601)"
       id="g116"><path
         id="path118"
         style="fill:#c44133;fill-opacity:1;fill-rule:nonzero;stroke:none"
         d="M 0,0 0,-9.793 95,-1.219 0,0 Z" /></g><g
       transform="translate(450.8907,303.7588)"
       id="g120"><path
         id="path122"
         style="fill:#c44133;fill-opacity:1;fill-rule:nonzero;stroke:none"
         d="M 0,0 -0.031,-9.34 95,12.537 0,0 Z" /></g><g
       transform="translate(452.8907,266.3481)"
       id="g124"><path
         id="path126"
         style="fill:#dddddd;fill-opacity:1;fill-rule:nonzero;stroke:none"
         d="M 0,0 0,-9.493 93,26.079 0,0 Z" /></g><g
       transform="translate(366.8904,368.0505)"
       id="g128"><path
         id="path130"
         style="fill:#c44133;fill-opacity:1;fill-rule:nonzero;stroke:none"
         d="M 0,0 -2,0.192 0,0 Z" /></g><g
       transform="translate(364.8906,198.6588)"
       id="g132"><path
         id="path134"
         style="fill:#c44133;fill-opacity:1;fill-rule:nonzero;stroke:none"
         d="M 0,0 2,0.808 0,0 Z" /></g><g
       transform="translate(396.891,365.3991)"
       id="g136"><path
         id="path138"
         style="fill:#c44133;fill-opacity:1;fill-rule:nonzero;stroke:none"
         d="M 0,0 -2.001,0.182 0,0 Z" /></g><g
       transform="translate(394.8903,210.9087)"
       id="g140"><path
         id="path142"
         style="fill:#c44133;fill-opacity:1;fill-rule:nonzero;stroke:none"
         d="M 0,0 2.001,0.846 0,0 Z" /></g><g
       transform="translate(452.8907,214.0755)"
       id="g144"><path
         id="path146"
         style="fill:#bcbcbc;fill-opacity:1;fill-rule:nonzero;stroke:none"
         d="M 0,0 -11,44.25 0,43.083 0,0 Z" /></g><g
       transform="translate(495.8907,239.3296)"
       id="g148"><path
         id="path150"
         style="fill:#bcbcbc;fill-opacity:1;fill-rule:nonzero;stroke:none"
         d="M 0,0 -0.417,33.871 -9.875,30.204 0,0 Z" /></g><g
       transform="translate(529.8906,257.114)"
       id="g152"><path
         id="path154"
         style="fill:#bcbcbc;fill-opacity:1;fill-rule:nonzero;stroke:none"
         d="M 0,0 -0.125,29.128 -8.042,26.087 0,0 Z" /></g><g
       transform="translate(463.9323,261.0755)"
       id="g156"><path
         id="path158"
         style="fill:#dddddd;fill-opacity:1;fill-rule:nonzero;stroke:none"
         d="M 0,0 -11,-3.792 -11.042,-47 0,0 Z" /></g><g
       transform="translate(504.8073,276.7422)"
       id="g160"><path
         id="path162"
         style="fill:#dddddd;fill-opacity:1;fill-rule:nonzero;stroke:none"
         d="M 0,0 -9.333,-3.583 -8.917,-37.413 0,0 Z" /></g><g
       transform="translate(534.8906,288.2422)"
       id="g164"><path
         id="path166"
         style="fill:#dddddd;fill-opacity:1;fill-rule:nonzero;stroke:none"
         d="M 0,0 -5.125,-1.979 -5,-31.128 0,0 Z" /></g></g></svg>